<svg width="21" height="20" viewBox="0 0 21 20" fill="none" xmlns="http://www.w3.org/2000/svg">
<g id="copy-06">
<path id="Icon" d="M6.58301 2.5H12.4997C14.3665 2.5 15.2999 2.5 16.013 2.86331C16.6402 3.18289 17.1501 3.69282 17.4697 4.32003C17.833 5.03307 17.833 5.96649 17.833 7.83333V13.75M5.49967 17.5H12.2497C13.1831 17.5 13.6498 17.5 14.0063 17.3183C14.3199 17.1586 14.5749 16.9036 14.7347 16.59C14.9163 16.2335 14.9163 15.7668 14.9163 14.8333V8.08333C14.9163 7.14991 14.9163 6.6832 14.7347 6.32668C14.5749 6.01308 14.3199 5.75811 14.0063 5.59832C13.6498 5.41667 13.1831 5.41667 12.2497 5.41667H5.49967C4.56625 5.41667 4.09954 5.41667 3.74302 5.59832C3.42942 5.75811 3.17445 6.01308 3.01466 6.32668C2.83301 6.6832 2.83301 7.14991 2.83301 8.08333V14.8333C2.83301 15.7668 2.83301 16.2335 3.01466 16.59C3.17445 16.9036 3.42942 17.1586 3.74302 17.3183C4.09954 17.5 4.56625 17.5 5.49967 17.5Z" stroke="#101828" stroke-width="1.24" stroke-linecap="round" stroke-linejoin="round"/>
</g>
</svg>
