<svg width="20" height="10" viewBox="0 0 20 10" fill="none" xmlns="http://www.w3.org/2000/svg">
<path id="Icon" d="M9.99984 5.00016H10.004M14.1665 5.00016H14.1707M5.83317 5.00016H5.83734M4.33317 0.833496H15.6665C16.5999 0.833496 17.0666 0.833496 17.4232 1.01515C17.7368 1.17494 17.9917 1.42991 18.1515 1.74351C18.3332 2.10003 18.3332 2.56674 18.3332 3.50016V6.50016C18.3332 7.43358 18.3332 7.90029 18.1515 8.25681C17.9917 8.57042 17.7368 8.82538 17.4232 8.98517C17.0666 9.16683 16.5999 9.16683 15.6665 9.16683H4.33317C3.39975 9.16683 2.93304 9.16683 2.57652 8.98517C2.26292 8.82538 2.00795 8.57042 1.84816 8.25681C1.6665 7.90029 1.6665 7.43358 1.6665 6.50016V3.50016C1.6665 2.56674 1.6665 2.10003 1.84816 1.74351C2.00795 1.42991 2.26292 1.17494 2.57652 1.01515C2.93304 0.833496 3.39975 0.833496 4.33317 0.833496ZM10.2082 5.00016C10.2082 5.11522 10.1149 5.2085 9.99984 5.2085C9.88478 5.2085 9.7915 5.11522 9.7915 5.00016C9.7915 4.8851 9.88478 4.79183 9.99984 4.79183C10.1149 4.79183 10.2082 4.8851 10.2082 5.00016ZM14.3748 5.00016C14.3748 5.11522 14.2816 5.2085 14.1665 5.2085C14.0514 5.2085 13.9582 5.11522 13.9582 5.00016C13.9582 4.8851 14.0514 4.79183 14.1665 4.79183C14.2816 4.79183 14.3748 4.8851 14.3748 5.00016ZM6.0415 5.00016C6.0415 5.11522 5.94823 5.2085 5.83317 5.2085C5.71811 5.2085 5.62484 5.11522 5.62484 5.00016C5.62484 4.8851 5.71811 4.79183 5.83317 4.79183C5.94823 4.79183 6.0415 4.8851 6.0415 5.00016Z" stroke="#344054" stroke-width="1.66667" stroke-linecap="round" stroke-linejoin="round"/>
</svg>
